<svg viewBox="0 0 699 546" >
<path d="M426.6,470.1H252.3 M61.9,470.1H31.3C19,470.1,9,460,9,447.8v-290c0-12.3,10-22.3,22.3-22.3h522.3
	c31.7,0,58.8,104.7,80,156.4c55.8,0,78.1,178.2,29.7,178.2h-46.4"/>
<path d="M608.2,291.9H498.6c-50.8,0-43-22.6-43-59.3v-71.7"/>
<path d="M463.2,108.3V87.8c0-5.2-4.2-9.4-9.4-9.4L451.2,32c-0.6-10.3-6.7-18.8-17.1-18.8h-37.7
	c-10.3,0-16.5,8.5-17.1,18.8l-2.6,46.3c-5.2,0-9.4,4.2-9.4,9.4v20.5"/>
<line x1="294.9" y1="9" x2="333.3" y2="23.6"/>
<line x1="294.9" y1="102.9" x2="333.3" y2="88.3"/>
<line x1="284.5" y1="56" x2="333.3" y2="56"/>
<line x1="535.6" y1="9" x2="497.3" y2="23.6"/>
<line x1="535.7" y1="102.9" x2="497.3" y2="88.3"/>
<line x1="546.1" y1="56" x2="497.3" y2="56"/>
<ellipse transform="matrix(0.7071 -0.7071 0.7071 0.7071 -287.6978 249.295)" cx="157.1" cy="471.9" rx="65.1" ry="65.1"/>
<ellipse transform="matrix(5.243606e-02 -0.9986 0.9986 5.243606e-02 25.0618 966.553)" cx="521.8" cy="470.1" rx="65.1" ry="65.1"/>
<polygon points="207.8,201.9 259.9,201.9 259.9,254 311.9,254 311.9,306.1 259.9,306.1 259.9,358.2 207.8,358.2 
	207.8,306.1 155.7,306.1 155.7,254 207.8,254 "/>
</svg>
