<svg viewBox="0 0 50.4 45" style="enable-background:new 0 0 50.4 45;" xml:space="preserve">
<style type="text/css">
	.st0{fill-rule:evenodd;clip-rule:evenodd;fill:none;stroke:#000000;stroke-width:2.126;stroke-miterlimit:22.9256;}
</style>
<path d="M27.2,38.2h5.1v-24h15.1v24h2v5.8H1.1v-5.8h2.3V14.3h2.6v-1.6h6.4v1.6h1.2v23.9h5.1l0-35.4h2.5V1.1H33v1.7h2.5
	v8.6 M6.1,18.4h4.6 M6.1,22.6h4.6 M6.1,26.8h4.6 M6.1,31h4.6 M35,18.9h9.6 M35,22.9h9.6 M35,26.9h9.6 M35,30.9h9.6 M35,34.9h9.6
	 M22.1,6.9h9.8 M22.1,11.3H29 M22.1,15.6H29 M22.1,19.9H29 M22.1,24.3H29 M22.1,28.6H29 M22.1,32.9H29"/>
</svg>
